<?xml version="1.0" encoding="utf-8"?>
<!-- Generator: Adobe Illustrator 23.0.3, SVG Export Plug-In . SVG Version: 6.00 Build 0)  -->
<svg version="1.1" id="Режим_изоляции"
	 xmlns="http://www.w3.org/2000/svg" xmlns:xlink="http://www.w3.org/1999/xlink" x="0px" y="0px" viewBox="0 0 50.81 50.81"
	 enable-background="new 0 0 50.81 50.81" xml:space="preserve">
<circle fill="#EFEFEF" cx="25.4" cy="25.4" r="25.4"/>
<g>
	<g>
		<g>
			<linearGradient id="SVGID_1_" gradientUnits="userSpaceOnUse" x1="10.7116" y1="24.908" x2="40.0938" y2="24.908">
				<stop  offset="0" style="stop-color:#B385E0"/>
				<stop  offset="1" style="stop-color:#8685DD"/>
			</linearGradient>
			<path fill="url(#SVGID_1_)" d="M38.06,36.67H12.74c-1.12,0-2.03-0.91-2.03-2.03V18.37c0-1.12,0.91-2.19,2.03-2.19h7.65L22,13.15
				h6.31l1.61,3.03h8.14c1.12,0,2.03,0.91,2.03,2.03v16.43C40.09,35.76,39.18,36.67,38.06,36.67z M12.74,17.64
				c-0.31,0-0.57,0.42-0.57,0.73v16.27c0,0.31,0.25,0.57,0.57,0.57h25.32c0.31,0,0.57-0.25,0.57-0.57V18.2
				c0-0.31-0.25-0.57-0.57-0.57h-9.01l-1.61-3.03h-4.56l-1.61,3.03H12.74z"/>
		</g>
		<g>
			<linearGradient id="SVGID_2_" gradientUnits="userSpaceOnUse" x1="18.6502" y1="27.124" x2="31.3434" y2="27.124">
				<stop  offset="0" style="stop-color:#B385E0"/>
				<stop  offset="1" style="stop-color:#8685DD"/>
			</linearGradient>
			<path fill="url(#SVGID_2_)" d="M25,33.47c-3.5,0-6.35-2.85-6.35-6.35c0-3.5,2.85-6.35,6.35-6.35c3.5,0,6.35,2.85,6.35,6.35
				C31.34,30.62,28.5,33.47,25,33.47z M25,22.24c-2.69,0-4.89,2.19-4.89,4.89c0,2.69,2.19,4.89,4.89,4.89
				c2.69,0,4.89-2.19,4.89-4.89C29.88,24.43,27.69,22.24,25,22.24z"/>
		</g>
		<g>
			<linearGradient id="SVGID_3_" gradientUnits="userSpaceOnUse" x1="20.9236" y1="25.0874" x2="24.9967" y2="25.0874">
				<stop  offset="0" style="stop-color:#B385E0"/>
				<stop  offset="1" style="stop-color:#8685DD"/>
			</linearGradient>
			<path fill="url(#SVGID_3_)" d="M22.38,27.12h-1.46c0-2.25,1.83-4.07,4.07-4.07v1.46C23.56,24.51,22.38,25.68,22.38,27.12z"/>
		</g>
		<g>
			<linearGradient id="SVGID_4_" gradientUnits="userSpaceOnUse" x1="15.9486" y1="15.8266" x2="18.8164" y2="15.8266">
				<stop  offset="0" style="stop-color:#B385E0"/>
				<stop  offset="1" style="stop-color:#8685DD"/>
			</linearGradient>
			<rect x="15.95" y="15.1" fill="url(#SVGID_4_)" width="2.87" height="1.46"/>
		</g>
		<g>
			<linearGradient id="SVGID_5_" gradientUnits="userSpaceOnUse" x1="32.2904" y1="15.8266" x2="35.1582" y2="15.8266">
				<stop  offset="0" style="stop-color:#B385E0"/>
				<stop  offset="1" style="stop-color:#8685DD"/>
			</linearGradient>
			<rect x="32.29" y="15.1" fill="url(#SVGID_5_)" width="2.87" height="1.46"/>
		</g>
		<g>
			<linearGradient id="SVGID_6_" gradientUnits="userSpaceOnUse" x1="23.7252" y1="16.2595" x2="26.5931" y2="16.2595">
				<stop  offset="0" style="stop-color:#B385E0"/>
				<stop  offset="1" style="stop-color:#8685DD"/>
			</linearGradient>
			<rect x="23.73" y="15.53" fill="url(#SVGID_6_)" width="2.87" height="1.46"/>
		</g>
	</g>
	<g>
		<linearGradient id="SVGID_7_" gradientUnits="userSpaceOnUse" x1="29.6799" y1="33.3082" x2="39.3929" y2="33.3082">
			<stop  offset="0" style="stop-color:#B385E0"/>
			<stop  offset="1" style="stop-color:#8685DD"/>
		</linearGradient>
		<rect x="29.68" y="32.66" fill="url(#SVGID_7_)" width="9.71" height="1.3"/>
	</g>
	<g>
		<linearGradient id="SVGID_8_" gradientUnits="userSpaceOnUse" x1="11.6876" y1="33.3082" x2="19.9126" y2="33.3082">
			<stop  offset="0" style="stop-color:#B385E0"/>
			<stop  offset="1" style="stop-color:#8685DD"/>
		</linearGradient>
		<rect x="11.69" y="32.66" fill="url(#SVGID_8_)" width="8.22" height="1.3"/>
	</g>
	<g>
		<linearGradient id="SVGID_9_" gradientUnits="userSpaceOnUse" x1="16.4446" y1="27.1239" x2="33.5488" y2="27.1239">
			<stop  offset="0" style="stop-color:#B385E0"/>
			<stop  offset="1" style="stop-color:#8685DD"/>
		</linearGradient>
		<path fill="url(#SVGID_9_)" d="M25,35.68c-4.72,0-8.55-3.84-8.55-8.55c0-4.72,3.84-8.55,8.55-8.55c4.72,0,8.55,3.84,8.55,8.55
			C33.55,31.84,29.71,35.68,25,35.68z M25,19.87c-4,0-7.25,3.25-7.25,7.25c0,4,3.25,7.25,7.25,7.25c4,0,7.25-3.25,7.25-7.25
			C32.25,23.12,29,19.87,25,19.87z"/>
	</g>
	<g>
		<linearGradient id="SVGID_10_" gradientUnits="userSpaceOnUse" x1="11.6876" y1="20.7773" x2="20.2876" y2="20.7773">
			<stop  offset="0" style="stop-color:#B385E0"/>
			<stop  offset="1" style="stop-color:#8685DD"/>
		</linearGradient>
		<rect x="11.69" y="20.13" fill="url(#SVGID_10_)" width="8.6" height="1.3"/>
	</g>
	<g>
		<linearGradient id="SVGID_11_" gradientUnits="userSpaceOnUse" x1="29.5175" y1="20.7773" x2="39.1186" y2="20.7773">
			<stop  offset="0" style="stop-color:#B385E0"/>
			<stop  offset="1" style="stop-color:#8685DD"/>
		</linearGradient>
		<rect x="29.52" y="20.13" fill="url(#SVGID_11_)" width="9.6" height="1.3"/>
	</g>
	<g>
		<linearGradient id="SVGID_12_" gradientUnits="userSpaceOnUse" x1="33.9411" y1="18.9827" x2="37.4313" y2="18.9827">
			<stop  offset="0" style="stop-color:#B385E0"/>
			<stop  offset="1" style="stop-color:#8685DD"/>
		</linearGradient>
		<rect x="33.94" y="18.33" fill="url(#SVGID_12_)" width="3.49" height="1.3"/>
	</g>
</g>
</svg>
