<?xml version="1.0" encoding="utf-8"?>
<!-- Generator: Adobe Illustrator 23.0.3, SVG Export Plug-In . SVG Version: 6.00 Build 0)  -->
<svg version="1.1" id="Слой_1" xmlns="http://www.w3.org/2000/svg" xmlns:xlink="http://www.w3.org/1999/xlink" x="0px" y="0px"
	 viewBox="0 0 42.36 42.36" enable-background="new 0 0 42.36 42.36" xml:space="preserve">
<g>
	<circle fill="#FFFFFF" cx="21.18" cy="21.18" r="21.18"/>
	<g>
		<path fill="#FFFFFF" d="M2.21,21.37C2.21,10.99,10.62,2.58,21,2.58c10.38,0,18.79,8.41,18.79,18.79
			c0,10.38-8.41,18.79-18.79,18.79C10.62,40.16,2.21,31.75,2.21,21.37z"/>
		<linearGradient id="SVGID_1_" gradientUnits="userSpaceOnUse" x1="15.8342" y1="21.3696" x2="26.1658" y2="21.3696">
			<stop  offset="0" style="stop-color:#C285E3"/>
			<stop  offset="1" style="stop-color:#8785E0"/>
		</linearGradient>
		<path fill="url(#SVGID_1_)" d="M25.76,21.38h-3.11v11.11h-4.62V21.38h-2.2v-3.92h2.2v-2.54c0-1.82,0.86-4.66,4.66-4.66l3.42,0.01
			v3.81h-2.48c-0.41,0-0.98,0.2-0.98,1.07v2.31h3.52L25.76,21.38z M25.76,21.38"/>
	</g>
</g>
</svg>
