<?xml version="1.0" encoding="utf-8"?>
<!-- Generator: Adobe Illustrator 23.0.3, SVG Export Plug-In . SVG Version: 6.00 Build 0)  -->
<svg version="1.1" id="Слой_1" xmlns="http://www.w3.org/2000/svg" xmlns:xlink="http://www.w3.org/1999/xlink" x="0px" y="0px"
	 viewBox="0 0 214.72 63.15" enable-background="new 0 0 214.72 63.15" xml:space="preserve">
<g>
	<path fill="#F3F3F3" d="M121.47,21.05h14.75c5.81,0,10.53-4.71,10.53-10.53S142.02,0,136.21,0H26.59
		c-5.81,0-10.53,4.71-10.53,10.53s4.71,10.53,10.53,10.53h48.46c5.81,0,10.53,4.71,10.53,10.53c0,5.81-4.71,10.53-10.53,10.53H58.56
		c-5.81,0-10.53,4.71-10.53,10.53c0,5.81,4.71,10.53,10.53,10.53h68.61c5.81,0,10.53-4.71,10.53-10.53
		c0-5.81-4.71-10.53-10.53-10.53h-5.71c-5.81,0-10.53-4.71-10.53-10.53C110.94,25.76,115.65,21.05,121.47,21.05z"/>
	<path fill="#F3F3F3" d="M214.72,10.93c0,6.04-4.89,10.93-10.93,10.93h-31.47c-6.04,0-10.93-4.89-10.93-10.93l0,0
		c0-6.04,4.89-10.93,10.93-10.93h31.47C209.82,0,214.72,4.89,214.72,10.93L214.72,10.93z"/>
	<path fill="#F3F3F3" d="M32.13,52.63c0,5.81-4.89,10.53-10.93,10.53H10.93C4.89,63.15,0,58.44,0,52.63l0,0
		C0,46.81,4.89,42.1,10.93,42.1H21.2C27.24,42.1,32.13,46.81,32.13,52.63L32.13,52.63z"/>
</g>
</svg>
