<?xml version="1.0" encoding="utf-8"?>
<!-- Generator: Adobe Illustrator 23.0.3, SVG Export Plug-In . SVG Version: 6.00 Build 0)  -->
<svg version="1.1" id="Слой_1" xmlns="http://www.w3.org/2000/svg" xmlns:xlink="http://www.w3.org/1999/xlink" x="0px" y="0px"
	 viewBox="0 0 1329.48 1975.3" enable-background="new 0 0 1329.48 1975.3" preserveAspectRatio="none">
<path fill="#F3F3F3" d="M0,1367.54c38.32,85.11,120.27,147.63,211.24,180.83s190.62,39.72,288.29,36.29
	c97.67-3.43,194.8-16.45,292.43-20.89c72.32-3.29,145.82-1.74,215.26,17.15c69.44,18.9,135.04,56.67,174.7,113.9
	c30.63,44.2,44.12,96.85,61.68,147.14c17.56,50.3,41.46,101.45,85.89,133.35c0-404.51,0-809.01,0-1213.52
	c-14.43-25.02-27.27-40-36.62-49.21c-1.97-1.94-5.92-5.88-14.28-13.91c-5.59-5.37-13.52-13.11-25.34-25.06
	c-48.97-49.51-101.41-81.85-130.91-94.51c-155.39-66.68-248.5-29.35-327.76-7.44c-76.29,21.08-171.05,11.32-267.82-15.07
	c-21.72-5.92-122.71-60.74-164.18-91.85c-60.43-45.33-81.28-81.91-118.17-119.43c-21.03-21.39-53.56-58.85-85.89-99.13
	C116.17,193.42,58.18,112.71,0,0C0,455.85,0,911.69,0,1367.54z"/>
</svg>
