<?xml version="1.0" encoding="utf-8"?>
<!-- Generator: Adobe Illustrator 23.0.3, SVG Export Plug-In . SVG Version: 6.00 Build 0)  -->
<svg version="1.1" id="Режим_изоляции"
	 xmlns="http://www.w3.org/2000/svg" xmlns:xlink="http://www.w3.org/1999/xlink" x="0px" y="0px" viewBox="0 0 29.38 23.52"
	 enable-background="new 0 0 29.38 23.52" xml:space="preserve">
<g>
	<g>
		<g>
			<linearGradient id="SVGID_1_" gradientUnits="userSpaceOnUse" x1="0" y1="11.7599" x2="29.3822" y2="11.7599">
				<stop  offset="0" style="stop-color:#B385E0"/>
				<stop  offset="1" style="stop-color:#8685DD"/>
			</linearGradient>
			<path fill="url(#SVGID_1_)" d="M27.35,23.52H2.03C0.91,23.52,0,22.61,0,21.49V5.22C0,4.1,0.91,3.03,2.03,3.03h7.65L11.29,0h6.31
				l1.61,3.03h8.14c1.12,0,2.03,0.91,2.03,2.03v16.43C29.38,22.61,28.47,23.52,27.35,23.52z M2.03,4.49c-0.31,0-0.57,0.42-0.57,0.73
				v16.27c0,0.31,0.25,0.57,0.57,0.57h25.32c0.31,0,0.57-0.25,0.57-0.57V5.06c0-0.31-0.25-0.57-0.57-0.57h-9.01l-1.61-3.03h-4.56
				l-1.61,3.03H2.03z"/>
		</g>
		<g>
			<linearGradient id="SVGID_2_" gradientUnits="userSpaceOnUse" x1="7.9387" y1="13.9759" x2="20.6318" y2="13.9759">
				<stop  offset="0" style="stop-color:#B385E0"/>
				<stop  offset="1" style="stop-color:#8685DD"/>
			</linearGradient>
			<path fill="url(#SVGID_2_)" d="M14.29,20.32c-3.5,0-6.35-2.85-6.35-6.35c0-3.5,2.85-6.35,6.35-6.35c3.5,0,6.35,2.85,6.35,6.35
				C20.63,17.48,17.78,20.32,14.29,20.32z M14.29,9.09c-2.69,0-4.89,2.19-4.89,4.89c0,2.69,2.19,4.89,4.89,4.89
				c2.69,0,4.89-2.19,4.89-4.89C19.17,11.28,16.98,9.09,14.29,9.09z"/>
		</g>
		<g>
			<linearGradient id="SVGID_3_" gradientUnits="userSpaceOnUse" x1="10.212" y1="11.9393" x2="14.2852" y2="11.9393">
				<stop  offset="0" style="stop-color:#B385E0"/>
				<stop  offset="1" style="stop-color:#8685DD"/>
			</linearGradient>
			<path fill="url(#SVGID_3_)" d="M11.67,13.98h-1.46c0-2.25,1.83-4.07,4.07-4.07v1.46C12.84,11.36,11.67,12.54,11.67,13.98z"/>
		</g>
		<g>
			<linearGradient id="SVGID_4_" gradientUnits="userSpaceOnUse" x1="5.237" y1="2.6785" x2="8.1048" y2="2.6785">
				<stop  offset="0" style="stop-color:#B385E0"/>
				<stop  offset="1" style="stop-color:#8685DD"/>
			</linearGradient>
			<rect x="5.24" y="1.95" fill="url(#SVGID_4_)" width="2.87" height="1.46"/>
		</g>
		<g>
			<linearGradient id="SVGID_5_" gradientUnits="userSpaceOnUse" x1="21.5788" y1="2.6785" x2="24.4466" y2="2.6785">
				<stop  offset="0" style="stop-color:#B385E0"/>
				<stop  offset="1" style="stop-color:#8685DD"/>
			</linearGradient>
			<rect x="21.58" y="1.95" fill="url(#SVGID_5_)" width="2.87" height="1.46"/>
		</g>
		<g>
			<linearGradient id="SVGID_6_" gradientUnits="userSpaceOnUse" x1="13.0136" y1="3.1114" x2="15.8816" y2="3.1114">
				<stop  offset="0" style="stop-color:#B385E0"/>
				<stop  offset="1" style="stop-color:#8685DD"/>
			</linearGradient>
			<rect x="13.01" y="2.38" fill="url(#SVGID_6_)" width="2.87" height="1.46"/>
		</g>
	</g>
	<g>
		<linearGradient id="SVGID_7_" gradientUnits="userSpaceOnUse" x1="18.9683" y1="20.1602" x2="28.6813" y2="20.1602">
			<stop  offset="0" style="stop-color:#B385E0"/>
			<stop  offset="1" style="stop-color:#8685DD"/>
		</linearGradient>
		<rect x="18.97" y="19.51" fill="url(#SVGID_7_)" width="9.71" height="1.3"/>
	</g>
	<g>
		<linearGradient id="SVGID_8_" gradientUnits="userSpaceOnUse" x1="0.976" y1="20.1602" x2="9.201" y2="20.1602">
			<stop  offset="0" style="stop-color:#B385E0"/>
			<stop  offset="1" style="stop-color:#8685DD"/>
		</linearGradient>
		<rect x="0.98" y="19.51" fill="url(#SVGID_8_)" width="8.22" height="1.3"/>
	</g>
	<g>
		<linearGradient id="SVGID_9_" gradientUnits="userSpaceOnUse" x1="5.733" y1="13.9759" x2="22.8372" y2="13.9759">
			<stop  offset="0" style="stop-color:#B385E0"/>
			<stop  offset="1" style="stop-color:#8685DD"/>
		</linearGradient>
		<path fill="url(#SVGID_9_)" d="M14.29,22.53c-4.72,0-8.55-3.84-8.55-8.55c0-4.72,3.84-8.55,8.55-8.55c4.72,0,8.55,3.84,8.55,8.55
			C22.84,18.69,19,22.53,14.29,22.53z M14.29,6.72c-4,0-7.25,3.25-7.25,7.25c0,4,3.25,7.25,7.25,7.25c4,0,7.25-3.25,7.25-7.25
			C21.54,9.98,18.28,6.72,14.29,6.72z"/>
	</g>
	<g>
		<linearGradient id="SVGID_10_" gradientUnits="userSpaceOnUse" x1="0.976" y1="7.6293" x2="9.576" y2="7.6293">
			<stop  offset="0" style="stop-color:#B385E0"/>
			<stop  offset="1" style="stop-color:#8685DD"/>
		</linearGradient>
		<rect x="0.98" y="6.98" fill="url(#SVGID_10_)" width="8.6" height="1.3"/>
	</g>
	<g>
		<linearGradient id="SVGID_11_" gradientUnits="userSpaceOnUse" x1="18.8059" y1="7.6293" x2="28.407" y2="7.6293">
			<stop  offset="0" style="stop-color:#B385E0"/>
			<stop  offset="1" style="stop-color:#8685DD"/>
		</linearGradient>
		<rect x="18.81" y="6.98" fill="url(#SVGID_11_)" width="9.6" height="1.3"/>
	</g>
	<g>
		<linearGradient id="SVGID_12_" gradientUnits="userSpaceOnUse" x1="23.2295" y1="5.8347" x2="26.7198" y2="5.8347">
			<stop  offset="0" style="stop-color:#B385E0"/>
			<stop  offset="1" style="stop-color:#8685DD"/>
		</linearGradient>
		<rect x="23.23" y="5.19" fill="url(#SVGID_12_)" width="3.49" height="1.3"/>
	</g>
</g>
</svg>
