<?xml version="1.0" encoding="utf-8"?>
<!-- Generator: Adobe Illustrator 23.0.3, SVG Export Plug-In . SVG Version: 6.00 Build 0)  -->
<svg version="1.1" id="Слой_1" xmlns="http://www.w3.org/2000/svg" xmlns:xlink="http://www.w3.org/1999/xlink" x="0px" y="0px"
	 viewBox="0 0 42.36 42.36" enable-background="new 0 0 42.36 42.36" xml:space="preserve">
<g>
	<circle fill="#FFFFFF" cx="21.18" cy="21.18" r="21.18"/>
	<g>
		<path fill-rule="evenodd" clip-rule="evenodd" fill="#FFFFFF" d="M39.84,18.95c0.18,1.48,0.18,2.98,0,4.46
			c-1.03,8.61-7.82,15.4-16.43,16.43c-1.48,0.18-2.98,0.18-4.46,0c-8.61-1.03-15.4-7.82-16.43-16.43c-0.18-1.48-0.18-2.98,0-4.46
			c1.03-8.61,7.82-15.4,16.43-16.43c1.48-0.18,2.98-0.18,4.46,0C32.02,3.55,38.81,10.34,39.84,18.95z"/>
	</g>
	<g>
		<g>
			<linearGradient id="SVGID_1_" gradientUnits="userSpaceOnUse" x1="11.2831" y1="21.1783" x2="31.0728" y2="21.1783">
				<stop  offset="0" style="stop-color:#C285E3"/>
				<stop  offset="1" style="stop-color:#8785E0"/>
			</linearGradient>
			<path fill="url(#SVGID_1_)" d="M30.91,16.25c-0.13-1.3-0.63-2.45-1.6-3.38c-1.02-0.97-2.26-1.4-3.63-1.47
				c-2.33-0.13-7.85-0.21-9.79,0.11c-2.22,0.36-3.67,1.65-4.28,3.84c-0.47,1.68-0.38,9.44-0.1,11.11c0.38,2.28,1.72,3.74,3.98,4.32
				c1.56,0.4,9.23,0.35,10.95,0.07c2.28-0.37,3.74-1.71,4.34-3.96C31.23,25.16,31.07,17.81,30.91,16.25z M29.09,26.14
				c-0.26,1.73-1.41,2.8-3.15,2.99c-1.6,0.18-8.72,0.27-10.21-0.14c-1.42-0.4-2.23-1.37-2.46-2.8c-0.22-1.36-0.28-8.17,0-9.99
				c0.26-1.71,1.41-2.78,3.14-2.98c1.75-0.2,8.06-0.22,9.74,0.04c1.72,0.26,2.79,1.41,2.98,3.16
				C29.31,18.05,29.36,24.39,29.09,26.14z M21.18,16.11c-2.8,0-5.08,2.27-5.08,5.07c0,2.8,2.27,5.08,5.07,5.08
				c2.8,0,5.08-2.27,5.08-5.07C26.25,18.38,23.98,16.11,21.18,16.11z M21.14,24.46c-1.81-0.02-3.27-1.5-3.25-3.31
				c0.02-1.81,1.5-3.27,3.31-3.25c1.81,0.02,3.27,1.5,3.25,3.31C24.44,23.02,22.96,24.47,21.14,24.46z M27.64,15.91
				c0,0.66-0.53,1.19-1.19,1.19c-0.66,0-1.19-0.53-1.19-1.19c0-0.66,0.53-1.19,1.19-1.19C27.11,14.72,27.64,15.26,27.64,15.91z"/>
		</g>
		<g>
			<linearGradient id="SVGID_2_" gradientUnits="userSpaceOnUse" x1="11.2831" y1="21.1783" x2="31.0728" y2="21.1783">
				<stop  offset="0" style="stop-color:#C285E3"/>
				<stop  offset="1" style="stop-color:#8785E0"/>
			</linearGradient>
			<path fill="url(#SVGID_2_)" d="M30.91,16.25c-0.13-1.3-0.63-2.45-1.6-3.38c-1.02-0.97-2.26-1.4-3.63-1.47
				c-2.33-0.13-7.85-0.21-9.79,0.11c-2.22,0.36-3.67,1.65-4.28,3.84c-0.47,1.68-0.38,9.44-0.1,11.11c0.38,2.28,1.72,3.74,3.98,4.32
				c1.56,0.4,9.23,0.35,10.95,0.07c2.28-0.37,3.74-1.71,4.34-3.96C31.23,25.16,31.07,17.81,30.91,16.25z M29.09,26.14
				c-0.26,1.73-1.41,2.8-3.15,2.99c-1.6,0.18-8.72,0.27-10.21-0.14c-1.42-0.4-2.23-1.37-2.46-2.8c-0.22-1.36-0.28-8.17,0-9.99
				c0.26-1.71,1.41-2.78,3.14-2.98c1.75-0.2,8.06-0.22,9.74,0.04c1.72,0.26,2.79,1.41,2.98,3.16
				C29.31,18.05,29.36,24.39,29.09,26.14z M21.18,16.11c-2.8,0-5.08,2.27-5.08,5.07c0,2.8,2.27,5.08,5.07,5.08
				c2.8,0,5.08-2.27,5.08-5.07C26.25,18.38,23.98,16.11,21.18,16.11z M21.14,24.46c-1.81-0.02-3.27-1.5-3.25-3.31
				c0.02-1.81,1.5-3.27,3.31-3.25c1.81,0.02,3.27,1.5,3.25,3.31C24.44,23.02,22.96,24.47,21.14,24.46z M27.64,15.91
				c0,0.66-0.53,1.19-1.19,1.19c-0.66,0-1.19-0.53-1.19-1.19c0-0.66,0.53-1.19,1.19-1.19C27.11,14.72,27.64,15.26,27.64,15.91z"/>
		</g>
	</g>
</g>
</svg>
