<?xml version="1.0" encoding="utf-8"?>
<!-- Generator: Adobe Illustrator 23.0.3, SVG Export Plug-In . SVG Version: 6.00 Build 0)  -->
<svg version="1.1" id="Слой_1" xmlns="http://www.w3.org/2000/svg" xmlns:xlink="http://www.w3.org/1999/xlink" x="0px" y="0px"
	 viewBox="0 0 42.36 42.23" enable-background="new 0 0 42.36 42.23" xml:space="preserve">
<g>
	<circle fill="#FFFFFF" cx="21.11" cy="21.11" r="21.11"/>
	<g>
		<defs>
			<circle id="SVGID_1_" cx="21.25" cy="21.11" r="21.11"/>
		</defs>
		<clipPath id="SVGID_2_">
			<use xlink:href="#SVGID_1_"  overflow="visible"/>
		</clipPath>
		<g clip-path="url(#SVGID_2_)">
			<path fill="#1F2224" d="M12.25,8.4c0.29-1.1-9.79,34.57-5.13,44.21c3.54,7.33,24.52,9.66,28.48-0.1s-4.88-45-4.88-45l-5.8,5.03
				l-6.43,0.37L12.25,8.4z"/>
			<line fill="#FFFFFF" stroke="#FFFFFF" stroke-width="0.5" stroke-miterlimit="10" x1="25.1" y1="24.23" x2="30.83" y2="22.35"/>
			<line fill="#FFFFFF" stroke="#FFFFFF" stroke-width="0.5" stroke-miterlimit="10" x1="25.1" y1="26.23" x2="31.66" y2="25.55"/>
			<line fill="#FFFFFF" stroke="#FFFFFF" stroke-width="0.5" stroke-miterlimit="10" x1="11.39" y1="22.47" x2="17.6" y2="24.14"/>
			<line fill="#FFFFFF" stroke="#FFFFFF" stroke-width="0.5" stroke-miterlimit="10" x1="11.47" y1="25.52" x2="17.71" y2="26.17"/>
			<polygon fill="#FFFFFF" points="26.64,13.25 29.51,10.68 29.91,13.73 			"/>
			<polygon fill="#FFFFFF" points="12.85,13.39 13.2,11.02 16.36,13.39 			"/>
			<polygon fill="#FFFFFF" points="20.06,24.82 22.78,24.82 21.42,26.73 			"/>
		</g>
	</g>
</g>
</svg>
