<?xml version="1.0" encoding="utf-8"?>
<!-- Generator: Adobe Illustrator 23.0.3, SVG Export Plug-In . SVG Version: 6.00 Build 0)  -->
<svg version="1.1" id="Слой_1" xmlns="http://www.w3.org/2000/svg" xmlns:xlink="http://www.w3.org/1999/xlink" x="0px" y="0px"
	 viewBox="0 0 42.36 42.36" enable-background="new 0 0 42.36 42.36" xml:space="preserve">
<g>
	<circle fill="#FFFFFF" cx="21.18" cy="21.18" r="21.18"/>
	<circle fill="#FFFFFF" cx="21.18" cy="21.18" r="18.79"/>
	<linearGradient id="SVGID_1_" gradientUnits="userSpaceOnUse" x1="8.4921" y1="21.178" x2="31.9845" y2="21.178">
		<stop  offset="0" style="stop-color:#C285E3"/>
		<stop  offset="1" style="stop-color:#8785E0"/>
	</linearGradient>
	<path fill-rule="evenodd" clip-rule="evenodd" fill="url(#SVGID_1_)" d="M18.33,24.47c0.24-1.72,12.77-11.09,9.82-9.52l-7.96,4.61
		c-4.71,2.86-4.37,2.41-3.37,5.81c0.09,0.33,0.49,2.15,0.79,2.52C18.16,28.56,18.32,24.52,18.33,24.47 M13.92,22.62
		c0.45,0.18,0.35,0.12,0.51,0.64c0.34,1.15,0.69,2.21,1.04,3.36c1.17,3.88,1.02,3.9,2.68,2.55c2.74-2.23,2.49-2.45,4.06-1.34
		l4.53,3.31c1.29,0.97,1.36-1,1.58-2.05l3.63-17.33c0.08-0.34,0.03-0.55-0.09-0.66c-0.26-0.25-0.87-0.09-1.35,0.11l-19.32,7.45
		C5.39,20.82,10.22,21.16,13.92,22.62z"/>
</g>
</svg>
