<?xml version="1.0" encoding="utf-8"?>
<!-- Generator: Adobe Illustrator 23.0.3, SVG Export Plug-In . SVG Version: 6.00 Build 0)  -->
<svg version="1.1" id="Слой_1" xmlns="http://www.w3.org/2000/svg" xmlns:xlink="http://www.w3.org/1999/xlink" x="0px" y="0px"
	 viewBox="0 0 42.36 42.36" enable-background="new 0 0 42.36 42.36" xml:space="preserve">
<g>
	<circle fill="#FFFFFF" cx="21.18" cy="21.18" r="21.18"/>
	<g>
		<circle fill="#FFFFFF" cx="21.18" cy="21.38" r="18.79"/>
		<linearGradient id="SVGID_1_" gradientUnits="userSpaceOnUse" x1="9.0219" y1="22.1881" x2="33.3341" y2="22.1881">
			<stop  offset="0" style="stop-color:#C285E3"/>
			<stop  offset="1" style="stop-color:#8785E0"/>
		</linearGradient>
		<path fill="url(#SVGID_1_)" d="M9.02,16.43c0-0.07,0-0.13,0-0.2c0.12-0.25,0.35-0.33,0.61-0.34c0.04,0,0.08,0,0.12,0
			c1.06,0,2.12,0,3.17,0c0.64,0,0.76,0.08,1,0.67c0.65,1.58,1.45,3.08,2.43,4.49c0.24,0.35,0.51,0.68,0.85,0.95
			c0.54,0.41,1.02,0.28,1.25-0.36c0.13-0.36,0.18-0.73,0.22-1.1c0.07-0.67,0.06-1.35,0.02-2.02c-0.02-0.48-0.04-0.96-0.17-1.44
			c-0.14-0.53-0.47-0.88-0.99-1.05c-0.1-0.03-0.2-0.06-0.32-0.1c0.13-0.18,0.28-0.3,0.47-0.39c0.34-0.16,0.71-0.23,1.08-0.24
			c0.73-0.03,1.46-0.04,2.19-0.05c0.5,0,1,0.05,1.48,0.19c0.33,0.1,0.55,0.3,0.59,0.64c0.04,0.31,0.06,0.63,0.06,0.94
			c-0.02,1.13-0.05,2.26-0.07,3.38c0,0.24,0.01,0.49,0.04,0.73c0.04,0.33,0.14,0.64,0.38,0.88c0.17,0.17,0.37,0.23,0.6,0.15
			c0.1-0.03,0.2-0.08,0.28-0.15c0.21-0.19,0.43-0.38,0.62-0.6c0.59-0.69,1.05-1.46,1.5-2.24c0.51-0.89,0.93-1.83,1.3-2.79
			c0.14-0.35,0.3-0.46,0.67-0.46c1.34,0,2.68,0,4.02,0c0.18,0,0.36,0.02,0.53,0.05c0.27,0.05,0.36,0.18,0.31,0.45
			c-0.04,0.2-0.09,0.4-0.17,0.59c-0.3,0.72-0.72,1.38-1.17,2.01c-0.63,0.88-1.29,1.74-1.93,2.61c-0.22,0.31-0.42,0.64-0.61,0.97
			c-0.13,0.23-0.18,0.5-0.11,0.77c0.08,0.28,0.24,0.51,0.44,0.71c0.36,0.38,0.74,0.74,1.11,1.12c0.69,0.7,1.38,1.41,1.96,2.2
			c0.18,0.25,0.33,0.52,0.46,0.8c0.12,0.27,0.05,0.48-0.18,0.65c-0.24,0.18-0.51,0.29-0.82,0.29c-1.11,0-2.22,0-3.32,0
			c-0.29,0-0.57-0.06-0.83-0.17c-0.53-0.21-0.95-0.58-1.33-0.99c-0.37-0.4-0.72-0.82-1.09-1.22c-0.26-0.3-0.54-0.59-0.88-0.79
			c-0.46-0.27-0.86-0.2-1.2,0.21c-0.22,0.27-0.34,0.58-0.42,0.91c-0.1,0.4-0.13,0.82-0.13,1.23c0,0.44-0.35,0.86-0.84,0.83
			c-0.38-0.02-0.77-0.01-1.15,0c-0.77,0.02-1.52-0.11-2.26-0.34c-1.71-0.54-3.12-1.54-4.29-2.89c-1-1.16-1.85-2.43-2.62-3.75
			C10.83,20.3,9.87,18.39,9.02,16.43z"/>
	</g>
</g>
</svg>
